<svg xmlns="http://www.w3.org/2000/svg" viewBox="0 0 104.004 130">
  <defs>
    <style>
      .cls-1 {
        fill: #070707;
      }
    </style>
  </defs>
  <g id="innovation" transform="translate(-51.192)">
    <g id="Group_97" data-name="Group 97" transform="translate(75.441 24.249)">
      <g id="Group_96" data-name="Group 96" transform="translate(0)">
        <path id="Path_53" data-name="Path 53" class="cls-1" d="M199.5,117.165h-5.767a20.06,20.06,0,0,0-1.341-3.238l4.078-4.078a2.7,2.7,0,0,0,0-3.816l-4.8-4.8a2.7,2.7,0,0,0-3.816,0l-4.078,4.078a20.049,20.049,0,0,0-3.238-1.341V98.2a2.7,2.7,0,0,0-2.7-2.7h-6.787a2.7,2.7,0,0,0-2.7,2.7v5.767a20.074,20.074,0,0,0-3.238,1.341l-4.078-4.078a2.7,2.7,0,0,0-3.816,0l-4.8,4.8a2.7,2.7,0,0,0,0,3.816l4.078,4.078a20.047,20.047,0,0,0-1.341,3.238H149.4a2.7,2.7,0,0,0-2.7,2.7v6.787a2.7,2.7,0,0,0,2.7,2.7h5.767a20.062,20.062,0,0,0,1.341,3.238l-4.078,4.078a2.7,2.7,0,0,0,0,3.816l4.8,4.8a2.7,2.7,0,0,0,3.816,0l4.078-4.078a20.053,20.053,0,0,0,3.238,1.341v5.767a2.7,2.7,0,0,0,2.7,2.7h6.787a2.7,2.7,0,0,0,2.7-2.7v-5.767a20.059,20.059,0,0,0,3.238-1.341l4.078,4.078a2.7,2.7,0,0,0,3.817,0l4.8-4.8a2.7,2.7,0,0,0,0-3.816l-4.078-4.078a20.044,20.044,0,0,0,1.341-3.238H199.5a2.7,2.7,0,0,0,2.7-2.7v-6.787A2.7,2.7,0,0,0,199.5,117.165Zm-1.11,8.376h-6.109a1.9,1.9,0,0,0-1.854,1.471,16.283,16.283,0,0,1-2.026,4.892,1.9,1.9,0,0,0,.271,2.351L193,138.574l-3.229,3.229-4.319-4.319a1.9,1.9,0,0,0-2.352-.271,16.3,16.3,0,0,1-4.892,2.026,1.9,1.9,0,0,0-1.471,1.854V147.2h-4.566v-6.109a1.9,1.9,0,0,0-1.471-1.854,16.275,16.275,0,0,1-4.892-2.026,1.905,1.905,0,0,0-2.351.271l-4.319,4.319-3.229-3.229,4.319-4.319a1.9,1.9,0,0,0,.271-2.351,16.287,16.287,0,0,1-2.026-4.892,1.9,1.9,0,0,0-1.854-1.471h-6.109v-4.566h6.109a1.9,1.9,0,0,0,1.854-1.471,16.287,16.287,0,0,1,2.026-4.892,1.9,1.9,0,0,0-.271-2.351l-4.319-4.319,3.229-3.229,4.319,4.319a1.9,1.9,0,0,0,2.351.271,16.283,16.283,0,0,1,4.892-2.026,1.9,1.9,0,0,0,1.471-1.854V99.314h4.566v6.109a1.9,1.9,0,0,0,1.471,1.854A16.291,16.291,0,0,1,183.1,109.3a1.906,1.906,0,0,0,2.351-.271l4.319-4.319L193,107.941l-4.319,4.319a1.9,1.9,0,0,0-.271,2.351,16.291,16.291,0,0,1,2.026,4.892,1.9,1.9,0,0,0,1.854,1.471h6.109Z" transform="translate(-146.697 -95.505)"/>
      </g>
    </g>
    <g id="Group_99" data-name="Group 99" transform="translate(92.992 41.8)">
      <g id="Group_98" data-name="Group 98">
        <path id="Path_54" data-name="Path 54" class="cls-1" d="M226.022,164.628a10.2,10.2,0,1,0,10.2,10.2A10.213,10.213,0,0,0,226.022,164.628Zm0,16.6a6.393,6.393,0,1,1,6.393-6.393A6.4,6.4,0,0,1,226.022,181.223Z" transform="translate(-215.82 -164.628)"/>
      </g>
    </g>
    <g id="Group_101" data-name="Group 101" transform="translate(51.192 50.098)">
      <g id="Group_100" data-name="Group 100">
        <path id="Path_55" data-name="Path 55" class="cls-1" d="M59.414,197.308H53.1a1.9,1.9,0,1,0,0,3.809h6.318a1.9,1.9,0,1,0,0-3.809Z" transform="translate(-51.192 -197.308)"/>
      </g>
    </g>
    <g id="Group_103" data-name="Group 103" transform="translate(145.07 50.098)">
      <g id="Group_102" data-name="Group 102">
        <path id="Path_56" data-name="Path 56" class="cls-1" d="M429.149,197.308h-6.318a1.9,1.9,0,1,0,0,3.809h6.318a1.9,1.9,0,1,0,0-3.809Z" transform="translate(-420.927 -197.308)"/>
      </g>
    </g>
    <g id="Group_105" data-name="Group 105" transform="translate(65.865 81.055)">
      <g id="Group_104" data-name="Group 104" transform="translate(0)">
        <path id="Path_57" data-name="Path 57" class="cls-1" d="M116.7,319.79a1.9,1.9,0,0,0-2.693,0l-4.467,4.467a1.9,1.9,0,0,0,2.693,2.693l4.467-4.467A1.9,1.9,0,0,0,116.7,319.79Z" transform="translate(-108.981 -319.232)"/>
      </g>
    </g>
    <g id="Group_107" data-name="Group 107" transform="translate(132.247 14.674)">
      <g id="Group_106" data-name="Group 106" transform="translate(0)">
        <path id="Path_58" data-name="Path 58" class="cls-1" d="M378.142,58.349a1.9,1.9,0,0,0-2.693,0l-4.467,4.467a1.9,1.9,0,0,0,2.693,2.693l4.467-4.467A1.9,1.9,0,0,0,378.142,58.349Z" transform="translate(-370.423 -57.791)"/>
      </g>
    </g>
    <g id="Group_109" data-name="Group 109" transform="translate(101.29 0)">
      <g id="Group_108" data-name="Group 108">
        <path id="Path_59" data-name="Path 59" class="cls-1" d="M250.405,0a1.9,1.9,0,0,0-1.9,1.9V8.222a1.9,1.9,0,0,0,3.809,0V1.9A1.9,1.9,0,0,0,250.405,0Z" transform="translate(-248.501 0)"/>
      </g>
    </g>
    <g id="Group_111" data-name="Group 111" transform="translate(132.247 81.055)">
      <g id="Group_110" data-name="Group 110" transform="translate(0)">
        <path id="Path_60" data-name="Path 60" class="cls-1" d="M378.142,324.257l-4.467-4.467a1.9,1.9,0,1,0-2.693,2.693l4.467,4.467a1.9,1.9,0,0,0,2.693-2.693Z" transform="translate(-370.423 -319.232)"/>
      </g>
    </g>
    <g id="Group_113" data-name="Group 113" transform="translate(65.865 14.674)">
      <g id="Group_112" data-name="Group 112" transform="translate(0)">
        <path id="Path_61" data-name="Path 61" class="cls-1" d="M116.7,62.816l-4.467-4.467a1.9,1.9,0,0,0-2.693,2.693l4.467,4.467a1.9,1.9,0,0,0,2.693-2.693Z" transform="translate(-108.981 -57.791)"/>
      </g>
    </g>
    <g id="Group_115" data-name="Group 115" transform="translate(105.733 13.849)">
      <g id="Group_114" data-name="Group 114">
        <path id="Path_62" data-name="Path 62" class="cls-1" d="M301.452,88.033A38.3,38.3,0,0,0,268.135,54.56a1.9,1.9,0,1,0-.461,3.781,34.3,34.3,0,0,1,30,30.136,1.9,1.9,0,0,0,1.889,1.683,1.971,1.971,0,0,0,.224-.013A1.9,1.9,0,0,0,301.452,88.033Z" transform="translate(-265.999 -54.545)"/>
      </g>
    </g>
    <g id="Group_117" data-name="Group 117" transform="translate(64.937 13.852)">
      <g id="Group_116" data-name="Group 116">
        <path id="Path_63" data-name="Path 63" class="cls-1" d="M179.884,95.26a1.9,1.9,0,0,0-2.128,1.65,34.316,34.316,0,0,1-15.88,24.824,12.812,12.812,0,0,0-6.054,10.9v7.837H131.349v-8.011a12.541,12.541,0,0,0-5.867-10.607,34.45,34.45,0,0,1,13.894-63.5,1.9,1.9,0,0,0-.468-3.78,38.256,38.256,0,0,0-15.431,70.519,8.7,8.7,0,0,1,4.063,7.368v8.288a4.956,4.956,0,0,0-3.333,4.674v2.715a4.923,4.923,0,0,0,1.056,3.047,4.921,4.921,0,0,0-1.056,3.047v2.715a4.957,4.957,0,0,0,4.951,4.951h5.987v4.3a4.509,4.509,0,0,0,4.5,4.5h7.87a4.509,4.509,0,0,0,4.5-4.5v-4.3h5.987a4.957,4.957,0,0,0,4.951-4.951v-2.715a4.922,4.922,0,0,0-1.057-3.047,4.921,4.921,0,0,0,1.057-3.047V145.42a4.956,4.956,0,0,0-3.333-4.674v-8.115a9.023,9.023,0,0,1,4.271-7.671,38.111,38.111,0,0,0,17.633-27.572A1.9,1.9,0,0,0,179.884,95.26ZM148.214,166.2a.7.7,0,0,1-.695.695h-7.87a.7.7,0,0,1-.695-.695v-4.3h9.26Zm10.939-9.256a1.158,1.158,0,0,1-1.143,1.143H129.159a1.158,1.158,0,0,1-1.143-1.143v-2.715a1.158,1.158,0,0,1,1.143-1.143h28.852a1.158,1.158,0,0,1,1.143,1.143Zm0-8.809a1.158,1.158,0,0,1-1.143,1.143H129.159a1.158,1.158,0,0,1-1.143-1.143V145.42a1.158,1.158,0,0,1,1.143-1.143h28.852a1.158,1.158,0,0,1,1.143,1.143v2.715Z" transform="translate(-105.328 -54.556)"/>
      </g>
    </g>
  </g>
</svg>
