<svg id="instagram-logo" xmlns="http://www.w3.org/2000/svg" viewBox="0 0 130 130">
  <path id="Path_37" data-name="Path 37" d="M94.124,0H35.875A35.916,35.916,0,0,0,0,35.875V94.125A35.915,35.915,0,0,0,35.875,130H94.124A35.916,35.916,0,0,0,130,94.125V35.875A35.916,35.916,0,0,0,94.124,0Zm24.343,94.125a24.369,24.369,0,0,1-24.342,24.341H35.875a24.368,24.368,0,0,1-24.34-24.341V35.875a24.369,24.369,0,0,1,24.34-24.341H94.124a24.369,24.369,0,0,1,24.342,24.341V94.125Z"/>
  <path id="Path_38" data-name="Path 38" d="M74.466,40.97a33.5,33.5,0,1,0,33.5,33.5A33.535,33.535,0,0,0,74.466,40.97Zm0,55.459A21.963,21.963,0,1,1,96.429,74.467,21.988,21.988,0,0,1,74.466,96.429Z" transform="translate(-9.466 -9.466)"/>
  <path id="Path_39" data-name="Path 39" d="M127.379,28.251a8.454,8.454,0,1,0,5.982,2.476A8.492,8.492,0,0,0,127.379,28.251Z" transform="translate(-27.477 -6.527)"/>
</svg>
