<svg xmlns="http://www.w3.org/2000/svg" viewBox="0 0 222.856 130">
  <g id="Group_120" data-name="Group 120" transform="translate(-4079.141 -1894.155)">
    <g id="hand-shake" transform="translate(4079.141 1894.155)">
      <g id="Group_10" data-name="Group 10" transform="translate(0 0)">
        <g id="Group_9" data-name="Group 9">
          <path id="Path_11" data-name="Path 11" d="M53.857,116.88c-7.429-7.429-39-9.285-49.214-10.214a3.412,3.412,0,0,0-2.786.928A7.043,7.043,0,0,0,0,111.309V194.88a4.387,4.387,0,0,0,4.643,4.643H32.5a5.107,5.107,0,0,0,4.643-2.786c0-2.786,16.714-52,18.571-76.142A3.709,3.709,0,0,0,53.857,116.88Z" transform="translate(0 -106.666)"/>
        </g>
      </g>
      <g id="Group_12" data-name="Group 12" transform="translate(78.81 19.5)">
        <g id="Group_11" data-name="Group 11">
          <path id="Path_12" data-name="Path 12" d="M255.465,164.466c-9.286-2.786-17.643-6.5-25.071-9.286-16.714-7.429-24.143-3.714-39,11.143-6.5,6.5-11.143,15.786-10.214,19.5,0,.928,0,.928,1.857,1.857,4.643,1.857,11.143,2.786,17.643-7.429a4.825,4.825,0,0,1,3.714-1.857c2.786,0,3.714-.928,6.5-1.857a45.292,45.292,0,0,1,6.5-2.786h1.857c.928,0,2.786.928,3.714.928,4.643,4.643,13,11.143,21.358,18.572,13,10.214,26,21.357,32.5,29.714h.928C271.251,204.4,260.108,172.823,255.465,164.466Z" transform="translate(-181.061 -151.467)"/>
        </g>
      </g>
      <g id="Group_14" data-name="Group 14" transform="translate(157.856 9.286)">
        <g id="Group_13" data-name="Group 13">
          <path id="Path_13" data-name="Path 13" d="M423.023,128c-36.214,0-56.642,9.286-57.571,9.286l-2.786,2.786c0,.928,0,2.786.928,3.714,5.571,9.286,24.143,60.357,26.929,73.357.928,1.857,2.786,3.714,4.643,3.714h27.857a4.387,4.387,0,0,0,4.643-4.643V132.642A4.386,4.386,0,0,0,423.023,128Z" transform="translate(-362.666 -128)"/>
        </g>
      </g>
      <g id="Group_16" data-name="Group 16" transform="translate(48.286 27.857)">
        <g id="Group_15" data-name="Group 15">
          <path id="Path_14" data-name="Path 14" d="M230.719,243.1c-3.714-8.357-19.5-20.428-33.428-31.571-7.428-6.5-14.857-12.072-20.428-16.715-.928.928-2.786.928-2.786,1.857-2.786.928-3.714,1.857-7.429,1.857-7.428,9.286-16.714,13-26.928,9.286a10.977,10.977,0,0,1-8.357-8.357c-1.857-9.286,6.5-22.286,13-28.785H125.791c-3.714,18.571-10.214,42.714-14.857,55.714,3.714,3.714,7.429,8.357,10.214,10.214,17.643,14.857,38.071,29.714,41.785,32.5,2.786,1.857,8.357,3.714,11.143,3.714h2.786L162,257.952a4.6,4.6,0,0,1,6.5-6.5l18.572,18.572c1.857,1.857,3.714.928,5.571.928,2.786-.928,3.714-2.786,4.643-5.571l-21.357-21.357a4.6,4.6,0,0,1,6.5-6.5l23.214,23.214c.928.928,4.643.928,7.429,0,.928-.928,2.786-1.857,3.714-3.714l-26-26a4.6,4.6,0,0,1,6.5-6.5l26.929,26.929c1.857.929,3.714,0,5.571-.928A6.3,6.3,0,0,0,230.719,243.1Z" transform="translate(-110.934 -170.667)"/>
        </g>
      </g>
    </g>
  </g>
</svg>
