<svg xmlns="http://www.w3.org/2000/svg" viewBox="0 0 130 132.598">
  <g id="project-management" transform="translate(-4.56 0.005)">
    <g id="Group_57" data-name="Group 57" transform="translate(103.868 66.395)">
      <g id="Group_56" data-name="Group 56">
        <path id="Path_43" data-name="Path 43" d="M359.016,234.257a2.276,2.276,0,0,0-4.075,1.045l-1.263,8.855a2.224,2.224,0,0,1-.118.332,40.922,40.922,0,0,0,5.566-10.087Z" transform="translate(-353.559 -233.346)"/>
      </g>
    </g>
    <g id="Group_59" data-name="Group 59" transform="translate(30.132 11.981)">
      <g id="Group_58" data-name="Group 58">
        <path id="Path_44" data-name="Path 44" d="M166.025,109.3a2.521,2.521,0,0,1-.321-.02l-13.522-1.933a2.276,2.276,0,0,1-1.93-2.576h0l1.263-8.855A2.276,2.276,0,0,0,147.9,93.77l-7.157,5.365a2.276,2.276,0,0,1-3.187-.455h0l-8.2-10.927a2.276,2.276,0,0,1,.455-3.187l7.155-5.365a2.276,2.276,0,0,0-1.045-4.075l-8.855-1.266a2.276,2.276,0,0,1-1.933-2.574v0l1.933-13.52a2.276,2.276,0,0,1,2.574-1.933h0L138.5,57.1A2.263,2.263,0,0,0,140.777,56a2.229,2.229,0,0,0-.137-2.527l-5.361-7.152a2.276,2.276,0,0,1,.455-3.187l1.291-.967a41.741,41.741,0,0,0-6.269.168,40.975,40.975,0,0,0-17.442,75.221,13.053,13.053,0,0,1,6.174,10.934v9.2a6.829,6.829,0,0,0,6.829,6.829h18.211a6.829,6.829,0,0,0,6.829-6.829v-9.01a13.41,13.41,0,0,1,6.306-11.2,41.25,41.25,0,0,0,9.5-8.514A2.274,2.274,0,0,1,166.025,109.3ZM137.7,137.691h-4.553v-6.829H137.7Zm-4.553-11.382a14.533,14.533,0,0,0-9.333-13.567,31.87,31.87,0,0,1-5.375-56.65l2.415,3.852a27.317,27.317,0,0,0,4.6,48.562,19.047,19.047,0,0,1,12.242,17.8Z" transform="translate(-94.426 -42.12)"/>
      </g>
    </g>
    <g id="Group_61" data-name="Group 61" transform="translate(62.023 125.764)">
      <g id="Group_60" data-name="Group 60">
        <path id="Path_45" data-name="Path 45" d="M206.5,441.987v2.276a4.553,4.553,0,0,0,4.553,4.553h9.106a4.553,4.553,0,0,0,4.553-4.553v-2.276Z" transform="translate(-206.503 -441.987)"/>
      </g>
    </g>
    <g id="Group_63" data-name="Group 63" transform="translate(6.789 58.974)">
      <g id="Group_62" data-name="Group 62">
        <path id="Path_46" data-name="Path 46" d="M53.393,237.634a43.08,43.08,0,0,1-3.89-2.843,13.631,13.631,0,1,1-13.765-19.8,43.351,43.351,0,0,1-1.8-7.719l-.4,1.894a4.553,4.553,0,0,1-7.036,2.814l-4.735-3.251-4.148,4.139,3.26,4.739a4.553,4.553,0,0,1-2.811,7.039l-5.675,1.2v5.409l5.675,1.2a4.553,4.553,0,0,1,2.809,7.041l-3.258,4.714,4.148,4.139,4.73-3.26a4.553,4.553,0,0,1,7.039,2.811l1.193,5.684h5.411l1.193-5.675a4.553,4.553,0,0,1,7.039-2.811l4.728,3.251,4.883-4.883A11.112,11.112,0,0,0,53.393,237.634Z" transform="translate(-12.391 -207.267)"/>
      </g>
    </g>
    <g id="Group_65" data-name="Group 65" transform="translate(62.023 116.658)">
      <g id="Group_64" data-name="Group 64">
        <rect id="Rectangle_46" data-name="Rectangle 46" width="18.211" height="4.553"/>
      </g>
    </g>
    <g id="Group_67" data-name="Group 67" transform="translate(65.665 5.422)">
      <g id="Group_66" data-name="Group 66">
        <path id="Path_47" data-name="Path 47" d="M281.606,52.885a6.829,6.829,0,0,1-3.13-12.224l5.334-4-5.463-7.284-5.334,4a6.829,6.829,0,0,1-10.861-6.419l.942-6.6-9.012-1.286-.942,6.6a6.829,6.829,0,0,1-12.224,3.13l-4-5.343-7.284,5.463,4,5.334A6.829,6.829,0,0,1,227.2,45.111l-6.6-.942L219.3,53.183l6.6.942a6.829,6.829,0,0,1,3.13,12.224l-5.331,4,5.463,7.284,5.334-4a6.829,6.829,0,0,1,10.858,6.431l-.942,6.6,9.033,1.293.942-6.6a6.829,6.829,0,0,1,12.224-3.13l4,5.331L277.9,78.1l-4.013-5.343A6.829,6.829,0,0,1,280.31,61.9l6.6.942,1.286-9.012Zm-27.847,14.28a13.658,13.658,0,1,1,13.658-13.658A13.658,13.658,0,0,1,253.759,67.165Z" transform="translate(-219.303 -19.067)"/>
      </g>
    </g>
    <g id="Group_69" data-name="Group 69" transform="translate(114.38 84.788)">
      <g id="Group_68" data-name="Group 68">
        <rect id="Rectangle_47" data-name="Rectangle 47" width="15.935" height="4.553"/>
      </g>
    </g>
    <g id="Group_71" data-name="Group 71" transform="translate(110.647 96.696)">
      <g id="Group_70" data-name="Group 70" transform="translate(0 0)">
        <rect id="Rectangle_48" data-name="Rectangle 48" width="4.553" height="17.779" transform="matrix(0.64, -0.768, 0.768, 0.64, 0, 3.498)"/>
      </g>
    </g>
    <g id="Group_73" data-name="Group 73" transform="translate(100.722 103)">
      <g id="Group_72" data-name="Group 72">
        <rect id="Rectangle_49" data-name="Rectangle 49" width="4.553" height="15.935"/>
      </g>
    </g>
    <g id="Group_75" data-name="Group 75" transform="translate(4.56 34.775)">
      <g id="Group_74" data-name="Group 74" transform="translate(0 0)">
        <rect id="Rectangle_50" data-name="Rectangle 50" width="18.771" height="4.551" transform="translate(0 4.552) rotate(-14.035)"/>
      </g>
    </g>
    <g id="Group_77" data-name="Group 77" transform="translate(8.342 12.371)">
      <g id="Group_76" data-name="Group 76" transform="translate(0 0)">
        <rect id="Rectangle_51" data-name="Rectangle 51" width="4.551" height="19.582" transform="matrix(0.581, -0.814, 0.814, 0.581, 0, 3.703)"/>
      </g>
    </g>
    <g id="Group_79" data-name="Group 79" transform="translate(27.846 -0.005)">
      <g id="Group_78" data-name="Group 78" transform="translate(0 0)">
        <rect id="Rectangle_52" data-name="Rectangle 52" width="4.553" height="18.796" transform="matrix(0.969, -0.248, 0.248, 0.969, 0, 1.128)"/>
      </g>
    </g>
  </g>
</svg>
