<svg id="hand-shake" xmlns="http://www.w3.org/2000/svg" viewBox="0 0 89.964 52.479">
  <defs>
    <style>
      .cls-1 {
        fill: #911854;
      }
    </style>
  </defs>
  <g id="Group_10" data-name="Group 10" transform="translate(0 0)">
    <g id="Group_9" data-name="Group 9">
      <path id="Path_11" data-name="Path 11" class="cls-1" d="M21.741,110.789c-3-3-15.744-3.748-19.867-4.123a1.377,1.377,0,0,0-1.125.375,2.843,2.843,0,0,0-.75,1.5v33.737a1.771,1.771,0,0,0,1.874,1.874H13.12a2.061,2.061,0,0,0,1.874-1.125c0-1.125,6.747-20.992,7.5-30.738A1.5,1.5,0,0,0,21.741,110.789Z" transform="translate(0 -106.666)"/>
    </g>
  </g>
  <g id="Group_12" data-name="Group 12" transform="translate(31.815 7.872)">
    <g id="Group_11" data-name="Group 11">
      <path id="Path_12" data-name="Path 12" class="cls-1" d="M211.1,156.714c-3.748-1.125-7.122-2.624-10.121-3.748-6.747-3-9.746-1.5-15.744,4.5-2.624,2.624-4.5,6.373-4.123,7.872,0,.375,0,.375.75.75,1.874.75,4.5,1.125,7.122-3a1.948,1.948,0,0,1,1.5-.75,6.947,6.947,0,0,0,2.624-.75,18.283,18.283,0,0,1,2.624-1.125h.75c.375,0,1.125.375,1.5.375,1.874,1.874,5.248,4.5,8.622,7.5,5.248,4.123,10.5,8.622,13.12,12h.375C217.47,172.833,212.972,160.088,211.1,156.714Z" transform="translate(-181.061 -151.467)"/>
    </g>
  </g>
  <g id="Group_14" data-name="Group 14" transform="translate(63.725 3.749)">
    <g id="Group_13" data-name="Group 13">
      <path id="Path_13" data-name="Path 13" class="cls-1" d="M387.031,128c-14.619,0-22.866,3.748-23.241,3.748l-1.125,1.125a2.254,2.254,0,0,0,.375,1.5c2.249,3.748,9.746,24.365,10.871,29.613a2.49,2.49,0,0,0,1.874,1.5h11.246a1.771,1.771,0,0,0,1.874-1.874V129.874A1.771,1.771,0,0,0,387.031,128Z" transform="translate(-362.666 -128)"/>
    </g>
  </g>
  <g id="Group_16" data-name="Group 16" transform="translate(19.492 11.246)">
    <g id="Group_15" data-name="Group 15">
      <path id="Path_14" data-name="Path 14" class="cls-1" d="M159.29,199.905c-1.5-3.374-7.872-8.247-13.495-12.745-3-2.624-6-4.873-8.247-6.747-.375.375-1.125.375-1.125.75a7.063,7.063,0,0,1-3,.75c-3,3.748-6.747,5.248-10.871,3.748a4.431,4.431,0,0,1-3.374-3.374c-.75-3.748,2.624-9,5.248-11.62h-7.5a191.121,191.121,0,0,1-6,22.491,42.377,42.377,0,0,0,4.123,4.123c7.122,6,15.369,12,16.868,13.12a10.655,10.655,0,0,0,4.5,1.5h1.125l-6-6a1.855,1.855,0,1,1,2.624-2.624l7.5,7.5c.75.75,1.5.375,2.249.375,1.125-.375,1.5-1.125,1.874-2.249l-8.622-8.622a1.855,1.855,0,0,1,2.624-2.624l9.371,9.371c.375.375,1.874.375,3,0,.375-.375,1.125-.75,1.5-1.5l-10.5-10.5a1.855,1.855,0,1,1,2.624-2.624l10.871,10.871a2.479,2.479,0,0,0,2.249-.375A2.545,2.545,0,0,0,159.29,199.905Z" transform="translate(-110.934 -170.667)"/>
    </g>
  </g>
</svg>
