<svg id="instagram-logo" xmlns="http://www.w3.org/2000/svg" viewBox="0 0 35.413 35.413">
  <defs>
    <style>
      .cls-1 {
        fill: #fff;
      }
    </style>
  </defs>
  <path id="Path_37" data-name="Path 37" class="cls-1" d="M25.64,0H9.772A9.784,9.784,0,0,0,0,9.773V25.64a9.784,9.784,0,0,0,9.772,9.773H25.64a9.784,9.784,0,0,0,9.773-9.773V9.773A9.784,9.784,0,0,0,25.64,0Zm6.631,25.64a6.638,6.638,0,0,1-6.631,6.631H9.772a6.638,6.638,0,0,1-6.63-6.631V9.773a6.638,6.638,0,0,1,6.63-6.631H25.64a6.638,6.638,0,0,1,6.631,6.631V25.64Z"/>
  <path id="Path_38" data-name="Path 38" class="cls-1" d="M50.093,40.97A9.125,9.125,0,1,0,59.218,50.1,9.135,9.135,0,0,0,50.093,40.97Zm0,15.107a5.983,5.983,0,1,1,5.983-5.983A5.99,5.99,0,0,1,50.093,56.077Z" transform="translate(-32.387 -32.388)"/>
  <path id="Path_39" data-name="Path 39" class="cls-1" d="M121.225,28.251a2.3,2.3,0,1,0,1.63.674A2.313,2.313,0,0,0,121.225,28.251Z" transform="translate(-94.011 -22.333)"/>
</svg>
