<svg xmlns="http://www.w3.org/2000/svg" viewBox="0 0 100 100">
  <defs>
    <style>
      .cls-1 {
        fill: #fff;
      }

      .cls-2 {
        fill: #fefefe;
      }
    </style>
  </defs>
  <g id="Group_121" data-name="Group 121" transform="translate(-273.121 537)">
    <g id="Group_120" data-name="Group 120" transform="translate(273.021 -537)">
      <g id="Group_3" data-name="Group 3" transform="translate(197.843 0)">
        <g id="Group_1" data-name="Group 1" transform="translate(93.275 0.861)">
          <path id="Path_1" data-name="Path 1" class="cls-1" d="M215.984,340.371h0c-19.588,0-35.444-14.645-35.444-32.735V118.98c0-21.536-37.31-53.41-89.544-53.41H66.744C47.157,65.57,31.3,50.925,31.3,32.835h0C31.3,14.745,47.157.1,66.744.1H91c85.813,0,160.433,55.133,160.433,118.88V307.636C251.429,325.727,235.572,340.371,215.984,340.371Z" transform="translate(-31.3 -0.1)"/>
        </g>
        <g id="Group_2" data-name="Group 2" transform="translate(0.932 0)">
          <path id="Union_1" data-name="Union 1" class="cls-2" d="M35.445,65.469c-13.058,0-25.183-6.891-30.78-17.229H69.024c-5.6,10.337-17.721,17.229-30.78,17.229ZM4.665,48.24A28.066,28.066,0,0,1,0,32.734C0,14.644,15.858,0,35.445,0h2.8C57.831,0,73.688,14.644,73.688,32.734A30.39,30.39,0,0,1,69.024,48.24Z" transform="translate(0 0)"/>
        </g>
        <path id="Path_4" data-name="Path 4" class="cls-1" d="M60.475,271.941H53.946c-17.722,0-32.646-13.783-32.646-30.151V39.351C21.3,22.983,36.224,9.2,53.946,9.2h6.529C78.2,9.2,93.122,22.983,93.122,39.351V241.79C93.122,258.158,79.13,271.941,60.475,271.941Z" transform="translate(-21.3 70.053)"/>
      </g>
      <g id="Group_5" data-name="Group 5" transform="translate(0.1 429)">
        <path id="Path_5" data-name="Path 5" class="cls-1" d="M.1,50.283l.933,138.693H31.813l.933-127.494c0-6.892-6.529-12.06-13.991-11.2Z" transform="translate(-0.1 -46.837)"/>
        <path id="Path_6" data-name="Path 6" class="cls-1" d="M6.9,51.723V190.416H33.017V82.735l91.41,106.819h33.579V60.337c0-6.03-3.731-10.337-9.327-10.337H129.09V155.1L38.613,50.861Z" transform="translate(56.527 -48.277)"/>
        <g id="Group_4" data-name="Group 4" transform="translate(236.918)">
          <path id="Path_7" data-name="Path 7" class="cls-1" d="M107.582,49.8c-45.7,0-82.082,31.874-82.082,71.5s37.31,71.5,82.082,71.5c45.7,0,82.082-31.874,82.082-71.5C190.6,82.535,153.287,49.8,107.582,49.8Zm0,122.325c-31.713,0-57.83-22.4-57.83-49.964S75.868,72.2,107.582,72.2s57.831,22.4,57.831,49.964C166.345,149.728,140.228,172.125,107.582,172.125Z" transform="translate(-25.5 -49.8)"/>
        </g>
        <path id="Path_8" data-name="Path 8" class="cls-1" d="M43.6,50.961l69.956,137.831h28.915L211.495,50.1H193.773c-7.462,0-13.059,4.307-16.789,10.337l-49.436,97.343-49.436-98.2c-2.8-6.03-9.328-9.476-15.857-9.476Z" transform="translate(362.146 -47.516)"/>
        <path id="Path_9" data-name="Path 9" class="cls-1" d="M63.5,50.962V188.793H181.026v-8.614c0-6.892-5.6-12.06-13.059-12.06H93.348V129.353h55.965V110.4h-56.9V70.775h77.418c5.6,0,11.193-4.307,11.193-10.337V50.1Z" transform="translate(527.863 -47.516)"/>
      </g>
    </g>
  </g>
</svg>
