<svg xmlns="http://www.w3.org/2000/svg" viewBox="0 0 100 61.7"><title>Ativo 1</title><g id="Camada_2" data-name="Camada 2"><g id="Camada_1-2" data-name="Camada 1"><g id="Group_82" data-name="Group 82"><g id="Group_3" data-name="Group 3"><g id="Group_1" data-name="Group 1"><path id="Path_1" data-name="Path 1" d="M134.21,96.44h0a9.64,9.64,0,0,1-10-9.25V33.86c0-6.09-10.53-15.1-25.27-15.1H92.1a9.64,9.64,0,0,1-10-9.25h0A9.65,9.65,0,0,1,92.1.25H99c24.21,0,45.26,15.59,45.26,33.61V87.19A9.64,9.64,0,0,1,134.21,96.44Z" style="fill:#fff"/></g><path d="M76.84,9.26A9.63,9.63,0,0,0,66.84,0h-.79a9.64,9.64,0,0,0-10,9.25,8,8,0,0,0,1.31,4.38h0a9.89,9.89,0,0,0,8.68,4.87h.79a9.9,9.9,0,0,0,8.69-4.87h0A8.51,8.51,0,0,0,76.84,9.26Z" style="fill:#fefefe"/><path id="Path_4" data-name="Path 4" d="M66.84,96.68H65a9,9,0,0,1-9.21-8.52V30.93A9,9,0,0,1,65,22.41h1.84a9,9,0,0,1,9.22,8.52V88.14A8.84,8.84,0,0,1,67,96.69Z" style="fill:#fff"/></g><g id="Group_5" data-name="Group 5"><path id="Path_5" data-name="Path 5" d="M0,122.25l.26,39.21H8.94l.26-36a3.39,3.39,0,0,0-3.55-3.22,2.58,2.58,0,0,0-.39,0Z" style="fill:#fff"/><path id="Path_6" data-name="Path 6" d="M17.89,122.25v39.21h7.37V131l25.79,30.2h9.48V124.69a2.66,2.66,0,0,0-2.39-2.91H52.37v29.7L26.83,122Z" style="fill:#fff"/><g id="Group_4" data-name="Group 4"><path id="Path_7" data-name="Path 7" d="M90,121.28c-12.89,0-23.16,9-23.16,20.21S77.37,161.7,90,161.7c12.9,0,23.16-9,23.16-20.21C113.42,130.53,102.9,121.28,90,121.28Zm0,34.58c-8.94,0-16.32-6.34-16.32-14.13S81.05,127.61,90,127.61s16.32,6.33,16.32,14.12C106.58,149.53,99.21,155.86,90,155.86Z" style="fill:#fff"/></g><path id="Path_8" data-name="Path 8" d="M114.47,122.25l19.74,39h8.16L161.84,122h-5a5.55,5.55,0,0,0-4.74,2.92l-13.94,27.52-14-27.76a4.9,4.9,0,0,0-4.47-2.68Z" style="fill:#fff"/><path id="Path_9" data-name="Path 9" d="M166.84,122.25v39H200v-2.44a3.47,3.47,0,0,0-3.53-3.42H175.26v-11h15.79v-5.35H175V127.85h21.84a3.09,3.09,0,0,0,3.16-2.92V122Z" style="fill:#fff"/></g></g></g></g></svg>