<svg xmlns="http://www.w3.org/2000/svg" viewBox="0 0 362.092 369.327">
  <defs>
    <style>
      .cls-1 {
        fill: #fff;
      }
    </style>
  </defs>
  <g id="project-management" transform="translate(-4.56 0.005)">
    <g id="Group_57" data-name="Group 57" transform="translate(281.163 184.94)">
      <g id="Group_56" data-name="Group 56">
        <path id="Path_43" data-name="Path 43" class="cls-1" d="M368.757,235.883a6.34,6.34,0,0,0-11.349,2.91l-3.519,24.665a6.186,6.186,0,0,1-.33.926,113.98,113.98,0,0,0,15.5-28.095Z" transform="translate(-353.559 -233.346)"/>
      </g>
    </g>
    <g id="Group_59" data-name="Group 59" transform="translate(75.784 33.381)">
      <g id="Group_58" data-name="Group 58">
        <path id="Path_44" data-name="Path 44" class="cls-1" d="M293.851,229.23a7.022,7.022,0,0,1-.894-.057l-37.662-5.383a6.34,6.34,0,0,1-5.377-7.176v0l3.519-24.664a6.341,6.341,0,0,0-10.075-5.966l-19.934,14.945a6.34,6.34,0,0,1-8.877-1.268h0l-22.826-30.434a6.34,6.34,0,0,1,1.268-8.877L212.921,145.4a6.34,6.34,0,0,0-2.91-11.349l-24.664-3.525a6.34,6.34,0,0,1-5.384-7.17s0,0,0-.007l5.383-37.656a6.34,6.34,0,0,1,7.17-5.384h.007l24.664,3.525a6.3,6.3,0,0,0,6.34-3.05,6.207,6.207,0,0,0-.38-7.038L208.216,53.827a6.34,6.34,0,0,1,1.268-8.877l3.6-2.695a116.261,116.261,0,0,0-17.462.469A114.129,114.129,0,0,0,147.037,252.24a36.356,36.356,0,0,1,17.2,30.453v25.622a19.021,19.021,0,0,0,19.021,19.021h50.724A19.021,19.021,0,0,0,253,308.315v-25.1a37.351,37.351,0,0,1,17.563-31.208A114.893,114.893,0,0,0,297.021,228.3,6.333,6.333,0,0,1,293.851,229.23Zm-78.895,79.085H202.275V289.294h12.681Zm-12.681-31.7a40.478,40.478,0,0,0-26-37.789,88.767,88.767,0,0,1-14.97-157.789l6.727,10.728a76.086,76.086,0,0,0,12.82,135.262,53.051,53.051,0,0,1,34.1,49.589Z" transform="translate(-94.426 -42.12)"/>
      </g>
    </g>
    <g id="Group_61" data-name="Group 61" transform="translate(164.612 350.301)">
      <g id="Group_60" data-name="Group 60">
        <path id="Path_45" data-name="Path 45" class="cls-1" d="M206.5,441.987v6.341a12.681,12.681,0,0,0,12.681,12.681h25.362a12.681,12.681,0,0,0,12.681-12.681v-6.341Z" transform="translate(-206.503 -441.987)"/>
      </g>
    </g>
    <g id="Group_63" data-name="Group 63" transform="translate(10.767 164.271)">
      <g id="Group_62" data-name="Group 62">
        <path id="Path_46" data-name="Path 46" class="cls-1" d="M126.6,291.849a120,120,0,0,1-10.836-7.919,37.965,37.965,0,1,1-38.341-55.162,120.746,120.746,0,0,1-5.022-21.5l-1.11,5.275a12.681,12.681,0,0,1-19.6,7.837L38.5,211.325,26.949,222.852l9.08,13.2a12.681,12.681,0,0,1-7.831,19.6l-15.807,3.329v15.065L28.2,277.38a12.68,12.68,0,0,1,7.824,19.611l-9.073,13.131L38.5,321.649l13.176-9.08a12.681,12.681,0,0,1,19.6,7.831L74.6,336.233H89.675L93,320.426a12.681,12.681,0,0,1,19.6-7.831l13.169,9.054,13.6-13.6A30.949,30.949,0,0,0,126.6,291.849Z" transform="translate(-12.391 -207.267)"/>
      </g>
    </g>
    <g id="Group_65" data-name="Group 65" transform="translate(164.612 324.939)">
      <g id="Group_64" data-name="Group 64">
        <rect id="Rectangle_46" data-name="Rectangle 46" class="cls-1" width="50.724" height="12.681"/>
      </g>
    </g>
    <g id="Group_67" data-name="Group 67" transform="translate(174.757 15.111)">
      <g id="Group_66" data-name="Group 66">
        <path id="Path_47" data-name="Path 47" class="cls-1" d="M392.836,113.261a19.021,19.021,0,0,1-8.718-34.048l14.856-11.147-15.217-20.29L368.9,58.917a19.021,19.021,0,0,1-30.25-17.88l2.625-18.387-25.1-3.582-2.625,18.387A19.021,19.021,0,0,1,279.5,46.173L268.353,31.291l-20.29,15.217L259.2,61.364a19.021,19.021,0,0,1-17.912,30.244L222.9,88.984l-3.6,25.108,18.387,2.625a19.021,19.021,0,0,1,8.718,34.048l-14.849,11.147,15.217,20.29,14.856-11.14a19.021,19.021,0,0,1,30.244,17.912l-2.625,18.387,25.159,3.6,2.625-18.387a19.021,19.021,0,0,1,34.048-8.718l11.147,14.849,20.29-15.217-11.178-14.881a19.022,19.022,0,0,1,17.887-30.244l18.387,2.625,3.582-25.1Zm-77.563,39.774a38.043,38.043,0,1,1,38.043-38.043A38.043,38.043,0,0,1,315.273,153.035Z" transform="translate(-219.303 -19.067)"/>
      </g>
    </g>
    <g id="Group_69" data-name="Group 69" transform="translate(310.443 236.172)">
      <g id="Group_68" data-name="Group 68">
        <rect id="Rectangle_47" data-name="Rectangle 47" class="cls-1" width="44.383" height="12.681"/>
      </g>
    </g>
    <g id="Group_71" data-name="Group 71" transform="translate(300.045 269.339)">
      <g id="Group_70" data-name="Group 70">
        <rect id="Rectangle_48" data-name="Rectangle 48" class="cls-1" width="12.681" height="49.519" transform="matrix(0.64, -0.768, 0.768, 0.64, 0, 9.743)"/>
      </g>
    </g>
    <g id="Group_73" data-name="Group 73" transform="translate(272.4 286.896)">
      <g id="Group_72" data-name="Group 72">
        <rect id="Rectangle_49" data-name="Rectangle 49" class="cls-1" width="12.681" height="44.383"/>
      </g>
    </g>
    <g id="Group_75" data-name="Group 75" transform="translate(4.56 96.868)">
      <g id="Group_74" data-name="Group 74">
        <rect id="Rectangle_50" data-name="Rectangle 50" class="cls-1" width="52.284" height="12.675" transform="translate(0 12.679) rotate(-14.035)"/>
      </g>
    </g>
    <g id="Group_77" data-name="Group 77" transform="translate(15.092 34.465)">
      <g id="Group_76" data-name="Group 76">
        <rect id="Rectangle_51" data-name="Rectangle 51" class="cls-1" width="12.675" height="54.541" transform="matrix(0.581, -0.814, 0.814, 0.581, 0, 10.313)"/>
      </g>
    </g>
    <g id="Group_79" data-name="Group 79" transform="translate(69.419 -0.005)">
      <g id="Group_78" data-name="Group 78" transform="translate(0)">
        <rect id="Rectangle_52" data-name="Rectangle 52" class="cls-1" width="12.681" height="52.353" transform="matrix(0.969, -0.248, 0.248, 0.969, 0, 3.141)"/>
      </g>
    </g>
  </g>
</svg>
