<svg id="startup" xmlns="http://www.w3.org/2000/svg" viewBox="0 0 130 130">
  <defs>
    <style>
      .cls-1 {
        fill: white;
      }
    </style>
  </defs>
  <g id="Group_19" data-name="Group 19" transform="translate(63.88 61.044)">
    <g id="Group_18" data-name="Group 18">
      <path id="Path_15" data-name="Path 15" class="cls-1" d="M255.922,241.163a2.54,2.54,0,1,0,0,3.59A2.539,2.539,0,0,0,255.922,241.163Z" transform="translate(-251.587 -240.418)"/>
    </g>
  </g>
  <g id="Group_21" data-name="Group 21" transform="translate(78.864 25.75)">
    <g id="Group_20" data-name="Group 20">
      <path id="Path_16" data-name="Path 16" class="cls-1" d="M332.269,105.136a12.7,12.7,0,1,0,0,17.954A12.69,12.69,0,0,0,332.269,105.136ZM328.678,119.5a7.617,7.617,0,1,1,0-10.772A7.627,7.627,0,0,1,328.678,119.5Z" transform="translate(-310.603 -101.415)"/>
    </g>
  </g>
  <g id="Group_23" data-name="Group 23" transform="translate(24.379 0)">
    <g id="Group_22" data-name="Group 22">
      <path id="Path_17" data-name="Path 17" class="cls-1" d="M200.9.744A2.53,2.53,0,0,0,199.009,0a112.8,112.8,0,0,0-30.492,6.313c-13.02,4.6-23.873,11.179-32.257,19.563-1.879,1.879-3.707,3.871-5.456,5.94-8.29-4.88-14.932-3.35-19.132-1.1C102,35.891,96.018,49.941,96.018,59.99a2.54,2.54,0,0,0,4.335,1.8,16.164,16.164,0,0,1,13.443-4.51l.889.889A89.309,89.309,0,0,0,110.492,70.5a7.187,7.187,0,0,0,.307,4.41,24.046,24.046,0,0,0-6.857,4.834c-6.536,6.536-7.863,22.465-7.916,23.139a2.539,2.539,0,0,0,2.531,2.739q.1,0,.2-.008c.675-.053,16.6-1.38,23.14-7.916a24.045,24.045,0,0,0,4.833-6.855,7.17,7.17,0,0,0,4.413.305,89.316,89.316,0,0,0,12.33-4.193l.889.889a16.164,16.164,0,0,1-4.51,13.443,2.539,2.539,0,0,0,1.8,4.334c10.05,0,24.1-5.985,29.274-15.654,2.247-4.2,3.777-10.842-1.1-19.131,2.069-1.748,4.061-3.577,5.94-5.456,8.384-8.384,14.966-19.237,19.563-32.256A112.794,112.794,0,0,0,201.637,2.63,2.54,2.54,0,0,0,200.9.744Zm-99.2,53.786c1.577-7.633,6.159-16.009,12.374-19.336,4.154-2.223,8.694-2,13.521.638A102.664,102.664,0,0,0,116.922,53.22a2.677,2.677,0,0,0-1.344-.789A21.7,21.7,0,0,0,101.695,54.529ZM118.306,94.1c-3.491,3.491-11.681,5.333-16.857,6.084.752-5.177,2.594-13.366,6.085-16.857a18.3,18.3,0,0,1,6.5-4.272l8.545,8.544A18.294,18.294,0,0,1,118.306,94.1Zm11.576-7.878a2.382,2.382,0,0,1-2.219-.72l-4.973-4.973-6.557-6.558a2.384,2.384,0,0,1-.722-2.219,82.447,82.447,0,0,1,3.17-9.7l21,21A82.388,82.388,0,0,1,129.882,86.227Zm36.564,1.343c-3.327,6.215-11.7,10.8-19.336,12.374,2.434-4.58,2.97-10.41,2.081-13.945a2.652,2.652,0,0,0-.772-1.282,102.7,102.7,0,0,0,17.389-10.668C168.451,78.876,168.668,83.417,166.446,87.57Zm5.725-25.782a92.147,92.147,0,0,1-7.323,6.569A97.551,97.551,0,0,1,144.607,80.9L120.734,57.033a97.535,97.535,0,0,1,12.547-20.241,92.14,92.14,0,0,1,6.57-7.323c7.522-7.522,17.23-13.509,28.862-17.818l21.275,21.275C185.68,44.558,179.693,54.265,172.17,61.788Zm19.645-34.217L174.068,9.824a114.153,114.153,0,0,1,22.279-4.532A114.172,114.172,0,0,1,191.816,27.571Z" transform="translate(-96.018 0)"/>
    </g>
  </g>
  <g id="Group_25" data-name="Group 25" transform="translate(49.517 104.132)">
    <g id="Group_24" data-name="Group 24">
      <path id="Path_18" data-name="Path 18" class="cls-1" d="M206.535,410.865a2.539,2.539,0,0,0-3.591,0l-7.181,7.183a2.539,2.539,0,0,0,3.592,3.59l7.18-7.183A2.539,2.539,0,0,0,206.535,410.865Z" transform="translate(-195.021 -410.121)"/>
    </g>
  </g>
  <g id="Group_27" data-name="Group 27" transform="translate(13.607 68.225)">
    <g id="Group_26" data-name="Group 26">
      <path id="Path_19" data-name="Path 19" class="cls-1" d="M65.11,269.445a2.539,2.539,0,0,0-3.591,0l-7.183,7.18a2.539,2.539,0,1,0,3.59,3.591l7.183-7.181A2.539,2.539,0,0,0,65.11,269.445Z" transform="translate(-53.592 -268.701)"/>
    </g>
  </g>
  <g id="Group_29" data-name="Group 29" transform="translate(21.544 107.725)">
    <g id="Group_28" data-name="Group 28">
      <path id="Path_20" data-name="Path 20" class="cls-1" d="M106.386,425.015a2.539,2.539,0,0,0-3.591,0l-17.2,17.2a2.539,2.539,0,0,0,3.591,3.591l17.2-17.2A2.539,2.539,0,0,0,106.386,425.015Z" transform="translate(-84.851 -424.271)"/>
    </g>
  </g>
  <g id="Group_31" data-name="Group 31" transform="translate(1.231 107.725)">
    <g id="Group_30" data-name="Group 30">
      <path id="Path_21" data-name="Path 21" class="cls-1" d="M26.386,425.015a2.539,2.539,0,0,0-3.591,0l-17.2,17.2A2.539,2.539,0,0,0,9.186,445.8l17.2-17.2A2.539,2.539,0,0,0,26.386,425.015Z" transform="translate(-4.851 -424.271)"/>
    </g>
  </g>
  <g id="Group_33" data-name="Group 33" transform="translate(0 86.178)">
    <g id="Group_32" data-name="Group 32">
      <path id="Path_22" data-name="Path 22" class="cls-1" d="M21.533,340.154a2.539,2.539,0,0,0-3.591,0l-17.2,17.2a2.539,2.539,0,0,0,3.591,3.591l17.2-17.2A2.539,2.539,0,0,0,21.533,340.154Z" transform="translate(-0.001 -339.41)"/>
    </g>
  </g>
  <g id="Group_35" data-name="Group 35" transform="translate(71.061 50.271)">
    <g id="Group_34" data-name="Group 34">
      <path id="Path_23" data-name="Path 23" class="cls-1" d="M287.8,198.734a2.54,2.54,0,0,0-3.591,0l-3.59,3.59a2.539,2.539,0,0,0,3.591,3.591l3.59-3.59A2.539,2.539,0,0,0,287.8,198.734Z" transform="translate(-279.871 -197.99)"/>
    </g>
  </g>
</svg>
